<?xml version="1.0" encoding="UTF-8"?>
<svg width="595px" height="595px" viewBox="0 0 595 595" version="1.1" xmlns="http://www.w3.org/2000/svg" xmlns:xlink="http://www.w3.org/1999/xlink" style="background: #FFFFFF;">
    <!-- Generator: Sketch 45.2 (43514) - http://www.bohemiancoding.com/sketch -->
    <title>@1xMakerfaire 2017</title>
    <desc>Created with Sketch.</desc>
    <defs></defs>
    <g id="Page-1" stroke="none" stroke-width="1" fill="none" fill-rule="evenodd">
        <g id="Makerfaire-2017">
            <rect id="Rectangle" stroke="#979797" stroke-width="5" x="92.5" y="64.5" width="410" height="410" rx="50"></rect>
            <rect id="Rectangle-2" fill="#FFFFFF" x="0" y="0" width="451" height="250"></rect>
            <text id="“116”" font-family="Quicksand-Regular, Quicksand" font-size="200" font-weight="normal" fill="#979797">
                <tspan x="35" y="210">“116”</tspan>
            </text>
            <text id="Ursa-Minor-in-concre" font-family="Quicksand-Light, Quicksand" font-size="34" font-weight="300" fill-opacity="0.87" fill="#000000">
                <tspan x="136" y="274">Ursa Minor </tspan>
                <tspan x="136" y="317">in concrete and resin</tspan>
            </text>
            <text id="with-Swarovski-cryst" font-family="Quicksand-Light, Quicksand" font-size="24" font-weight="300" fill-opacity="0.87" fill="#000000">
                <tspan x="136" y="355">with Swarovski crystals and </tspan>
                <tspan x="136" y="385">passive NFC-activated LED </tspan>
            </text>
            <text id="tatatee-with-help-fr" font-family="Quicksand-Medium, Quicksand" font-size="14" font-weight="400" fill-opacity="0.87" fill="#000000">
                <tspan x="171" y="436">tatatee</tspan>
                <tspan x="220.112" y="436" font-family="Quicksand-Regular, Quicksand" font-weight="normal"> with help from </tspan>
            </text>
            <text id="FunbieStudios" font-family="Quicksand-Medium, Quicksand" font-size="14" font-weight="400" fill-opacity="0.87" fill="#000000">
                <tspan x="352" y="436">FunbieStudios</tspan>
            </text>
            <g id="Group" transform="translate(150.000000, 421.000000)">
                <rect id="Mask" fill="#3B5795" x="0" y="0" width="16" height="16" rx="3"></rect>
                <path d="M14,4 L14,6.25 L12.5,6.25 C12.05,6.25 11.75,6.55 11.75,7 L11.75,8.5 L14,8.5 L14,10.75 L11.75,10.75 L11.75,16 L9.5,16 L9.5,10.75 L8,10.75 L8,8.5 L9.5,8.5 L9.5,6.625 C9.5,5.2 10.7,4 12.125,4 L14,4 Z" id="Shape" fill="#FAFAFA" fill-rule="nonzero"></path>
            </g>
            <g id="Group-Copy" transform="translate(331.000000, 421.000000)">
                <rect id="Mask" fill="#3B5795" x="0" y="0" width="16" height="16" rx="3"></rect>
                <path d="M14,4 L14,6.25 L12.5,6.25 C12.05,6.25 11.75,6.55 11.75,7 L11.75,8.5 L14,8.5 L14,10.75 L11.75,10.75 L11.75,16 L9.5,16 L9.5,10.75 L8,10.75 L8,8.5 L9.5,8.5 L9.5,6.625 C9.5,5.2 10.7,4 12.125,4 L14,4 Z" id="Shape" fill="#FAFAFA" fill-rule="nonzero"></path>
            </g>
        </g>
    </g>
</svg>